# xmcd
#
# Track frame offsets:
# 150
# 17607
# 33538
# 50540
# 64108
# 78858
# 92717
# 105249
# 118587
# 132252
# 146718
# 163513
# 175893
# 192938
# 209401
# 228966
# 241998
# 256216
# 268742
# 281972
#
# Disc length: 3994 seconds
#
#
# Revision: 0
# Processed by: cddbd v1.5.1PL2 Copyright (c) Steve Scherf et al.
# Submitted via: FreeRIP 2.944 
#
DISCID=190f9814
DTITLE=HERANÇA E TRADIÇÃO - HERANÇA E TRADIÇÃO
DYEAR=1900
DGENRE=
TTITLE0=Coração
TTITLE1=Barquinho
TTITLE2=Dança da Cachaça
TTITLE3=Tá Bão
TTITLE4=Quero Você
TTITLE5=Tikatum
TTITLE6=O Beijo
TTITLE7=Pé com pé
TTITLE8=Chora no Ombro do Véio
TTITLE9=Bendito Seja
TTITLE10=A Encomenda
TTITLE11=O Caldeirão
TTITLE12=Me Bate Nega Véia
TTITLE13=No Barulho da Sanfona
TTITLE14=Meu Pecado
TTITLE15=Ajoelha e chora
TTITLE16=Embalo do Herança
TTITLE17=Eu já Biquei
TTITLE18=Swing da Vanera
TTITLE19=Brasileira
EXTD=
EXTT0=
EXTT1=
EXTT2=
EXTT3=
EXTT4=
EXTT5=
EXTT6=
EXTT7=
EXTT8=
EXTT9=
EXTT10=
EXTT11=
EXTT12=
EXTT13=
EXTT14=
EXTT15=
EXTT16=
EXTT17=
EXTT18=
EXTT19=
PLAYORDER=
